<mxfile host="app.diagrams.net" modified="2021-10-14T16:15:06.973Z" agent="5.0 (Windows NT 10.0; Win64; x64) AppleWebKit/537.36 (KHTML, like Gecko) Chrome/93.0.4577.82 Safari/537.36" etag="mc0zU_glL85NZRTkl5m6" version="15.1.4" type="github">
  <diagram id="5AnYDvb3x7lwekYzqmpj" name="Page-1">
    <mxGraphModel dx="1328" dy="1915" grid="1" gridSize="10" guides="1" tooltips="1" connect="1" arrows="1" fold="1" page="1" pageScale="1" pageWidth="827" pageHeight="1169" math="0" shadow="0">
      <root>
        <mxCell id="0" />
        <mxCell id="1" parent="0" />
        <mxCell id="pgwAssis9LHmrlWw1_st-30" value="" style="edgeStyle=orthogonalEdgeStyle;rounded=0;orthogonalLoop=1;jettySize=auto;html=1;fontColor=#4D4D4D;" edge="1" parent="1" source="pgwAssis9LHmrlWw1_st-1" target="pgwAssis9LHmrlWw1_st-8">
          <mxGeometry relative="1" as="geometry" />
        </mxCell>
        <mxCell id="pgwAssis9LHmrlWw1_st-1" value="&lt;div&gt;&lt;span style=&quot;font-size: 14px&quot;&gt;setKeepVisibleCondition&lt;/span&gt;&lt;br&gt;&lt;/div&gt;" style="rounded=1;whiteSpace=wrap;html=1;fillColor=#dae8fc;strokeColor=#6c8ebf;align=center;fontStyle=1" vertex="1" parent="1">
          <mxGeometry x="767" y="-40" width="190" height="60" as="geometry" />
        </mxCell>
        <mxCell id="pgwAssis9LHmrlWw1_st-29" value="" style="edgeStyle=orthogonalEdgeStyle;rounded=0;orthogonalLoop=1;jettySize=auto;html=1;fontColor=#4D4D4D;" edge="1" parent="1" source="pgwAssis9LHmrlWw1_st-8" target="pgwAssis9LHmrlWw1_st-9">
          <mxGeometry relative="1" as="geometry" />
        </mxCell>
        <mxCell id="pgwAssis9LHmrlWw1_st-8" value="设置预描画回调&lt;br&gt;addOnPreDrawListener" style="rounded=1;whiteSpace=wrap;html=1;fillColor=#f5f5f5;strokeColor=#666666;fontColor=#333333;fontStyle=1" vertex="1" parent="1">
          <mxGeometry x="787" y="70" width="150" height="60" as="geometry" />
        </mxCell>
        <mxCell id="pgwAssis9LHmrlWw1_st-9" value="判断延长逻辑&lt;br&gt;KeepOnScreenCondition" style="rounded=1;whiteSpace=wrap;html=1;fillColor=#dae8fc;strokeColor=#6c8ebf;fontStyle=1" vertex="1" parent="1">
          <mxGeometry x="782" y="170" width="160" height="60" as="geometry" />
        </mxCell>
        <mxCell id="pgwAssis9LHmrlWw1_st-14" value="移除预描画回调&lt;br&gt;removeOnPreDrawListener" style="rounded=1;whiteSpace=wrap;html=1;fillColor=#f5f5f5;strokeColor=#666666;fontColor=#333333;fontStyle=1" vertex="1" parent="1">
          <mxGeometry x="772" y="280" width="180" height="60" as="geometry" />
        </mxCell>
        <mxCell id="pgwAssis9LHmrlWw1_st-16" value="Android 12?" style="rhombus;whiteSpace=wrap;html=1;fillColor=#f8cecc;strokeColor=#b85450;fontStyle=1" vertex="1" parent="1">
          <mxGeometry x="1006" y="140" width="110" height="80" as="geometry" />
        </mxCell>
        <mxCell id="pgwAssis9LHmrlWw1_st-17" value="" style="endArrow=classic;html=1;fontStyle=1;entryX=0;entryY=0.5;entryDx=0;entryDy=0;exitX=0.5;exitY=1;exitDx=0;exitDy=0;" edge="1" parent="1" source="pgwAssis9LHmrlWw1_st-14" target="pgwAssis9LHmrlWw1_st-16">
          <mxGeometry width="50" height="50" relative="1" as="geometry">
            <mxPoint x="850.5" y="340" as="sourcePoint" />
            <mxPoint x="787.0799999999999" y="449.9999999999998" as="targetPoint" />
            <Array as="points">
              <mxPoint x="862" y="370" />
              <mxPoint x="980.5" y="370" />
              <mxPoint x="981" y="180" />
            </Array>
          </mxGeometry>
        </mxCell>
        <mxCell id="pgwAssis9LHmrlWw1_st-18" value="N" style="text;html=1;strokeColor=none;fillColor=none;align=center;verticalAlign=middle;whiteSpace=wrap;rounded=0;fontStyle=1" vertex="1" parent="1">
          <mxGeometry x="1101" y="20" width="40" height="20" as="geometry" />
        </mxCell>
        <mxCell id="pgwAssis9LHmrlWw1_st-19" value="额外执行退场回调&lt;br&gt;dispatchOnExitAnimation" style="rounded=1;whiteSpace=wrap;html=1;fillColor=#dae8fc;strokeColor=#6c8ebf;fontStyle=1" vertex="1" parent="1">
          <mxGeometry x="1149" y="98" width="167" height="60" as="geometry" />
        </mxCell>
        <mxCell id="pgwAssis9LHmrlWw1_st-20" value="OnExitAnimationListener&lt;br&gt;#onSplashScreenExit" style="rounded=1;whiteSpace=wrap;html=1;fillColor=#dae8fc;strokeColor=#6c8ebf;fontStyle=1" vertex="1" parent="1">
          <mxGeometry x="1150" y="179" width="166" height="60" as="geometry" />
        </mxCell>
        <mxCell id="pgwAssis9LHmrlWw1_st-21" value="" style="endArrow=classic;html=1;exitX=0.5;exitY=1;exitDx=0;exitDy=0;entryX=0.5;entryY=1;entryDx=0;entryDy=0;fontStyle=1" edge="1" parent="1" source="pgwAssis9LHmrlWw1_st-16" target="pgwAssis9LHmrlWw1_st-23">
          <mxGeometry width="50" height="50" relative="1" as="geometry">
            <mxPoint x="722" y="420" as="sourcePoint" />
            <mxPoint x="610" y="500" as="targetPoint" />
            <Array as="points">
              <mxPoint x="1061" y="270" />
              <mxPoint x="1416" y="270" />
            </Array>
          </mxGeometry>
        </mxCell>
        <mxCell id="pgwAssis9LHmrlWw1_st-22" value="Y" style="text;html=1;strokeColor=none;fillColor=none;align=center;verticalAlign=middle;whiteSpace=wrap;rounded=0;fontStyle=1" vertex="1" parent="1">
          <mxGeometry x="1101" y="240" width="40" height="20" as="geometry" />
        </mxCell>
        <mxCell id="pgwAssis9LHmrlWw1_st-23" value="End" style="ellipse;whiteSpace=wrap;html=1;fillColor=#bac8d3;strokeColor=#23445d;fontStyle=1" vertex="1" parent="1">
          <mxGeometry x="1356" y="184" width="120" height="50" as="geometry" />
        </mxCell>
        <mxCell id="pgwAssis9LHmrlWw1_st-24" value="" style="endArrow=classic;html=1;fontStyle=1;exitX=0.5;exitY=1;exitDx=0;exitDy=0;entryX=0.5;entryY=0;entryDx=0;entryDy=0;" edge="1" parent="1" source="pgwAssis9LHmrlWw1_st-19" target="pgwAssis9LHmrlWw1_st-20">
          <mxGeometry width="50" height="50" relative="1" as="geometry">
            <mxPoint x="1241" y="159" as="sourcePoint" />
            <mxPoint x="1241" y="179" as="targetPoint" />
          </mxGeometry>
        </mxCell>
        <mxCell id="pgwAssis9LHmrlWw1_st-25" value="" style="endArrow=classic;html=1;exitX=0.5;exitY=0;exitDx=0;exitDy=0;entryX=0.483;entryY=-0.018;entryDx=0;entryDy=0;entryPerimeter=0;fontStyle=1" edge="1" parent="1" source="pgwAssis9LHmrlWw1_st-16" target="pgwAssis9LHmrlWw1_st-19">
          <mxGeometry width="50" height="50" relative="1" as="geometry">
            <mxPoint x="833" y="420" as="sourcePoint" />
            <mxPoint x="984" y="420" as="targetPoint" />
            <Array as="points">
              <mxPoint x="1061" y="60" />
              <mxPoint x="1230" y="60" />
            </Array>
          </mxGeometry>
        </mxCell>
        <mxCell id="pgwAssis9LHmrlWw1_st-26" value="" style="endArrow=classic;html=1;entryX=0;entryY=0.5;entryDx=0;entryDy=0;exitX=1;exitY=0.5;exitDx=0;exitDy=0;fontStyle=1" edge="1" parent="1" source="pgwAssis9LHmrlWw1_st-20" target="pgwAssis9LHmrlWw1_st-23">
          <mxGeometry width="50" height="50" relative="1" as="geometry">
            <mxPoint x="1270.25" y="249" as="sourcePoint" />
            <mxPoint x="1131" y="264" as="targetPoint" />
            <Array as="points" />
          </mxGeometry>
        </mxCell>
        <mxCell id="pgwAssis9LHmrlWw1_st-27" value="" style="endArrow=classic;html=1;fontStyle=1;entryX=0.5;entryY=0;entryDx=0;entryDy=0;exitX=0.5;exitY=1;exitDx=0;exitDy=0;" edge="1" parent="1" source="pgwAssis9LHmrlWw1_st-9" target="pgwAssis9LHmrlWw1_st-14">
          <mxGeometry width="50" height="50" relative="1" as="geometry">
            <mxPoint x="862.5" y="230" as="sourcePoint" />
            <mxPoint x="861.9999999999999" y="274.9999999999998" as="targetPoint" />
          </mxGeometry>
        </mxCell>
        <mxCell id="pgwAssis9LHmrlWw1_st-28" value="&lt;font&gt;※ 12 由系统执行回调&lt;/font&gt;" style="rounded=1;whiteSpace=wrap;html=1;fontStyle=1;fillColor=none;strokeColor=none;fontColor=#4D4D4D;" vertex="1" parent="1">
          <mxGeometry x="1143" y="270" width="180" height="60" as="geometry" />
        </mxCell>
      </root>
    </mxGraphModel>
  </diagram>
</mxfile>
